<mxfile host="Electron" modified="2023-11-23T09:41:15.222Z" agent="Mozilla/5.0 (Macintosh; Intel Mac OS X 10_15_7) AppleWebKit/537.36 (KHTML, like Gecko) draw.io/22.1.2 Chrome/114.0.5735.289 Electron/25.9.4 Safari/537.36" etag="jOALbKS52wzFa00TS5fX" version="22.1.2" type="device">
  <diagram name="Page-1" id="N0mbdfZ1gacBXTDTow3z">
    <mxGraphModel dx="3280" dy="2170" grid="1" gridSize="10" guides="1" tooltips="1" connect="1" arrows="1" fold="1" page="1" pageScale="1" pageWidth="1100" pageHeight="850" math="0" shadow="0">
      <root>
        <mxCell id="0" />
        <mxCell id="1" parent="0" />
        <mxCell id="h3mw5Vvp-WyGDYPCxj5l-2" style="edgeStyle=orthogonalEdgeStyle;rounded=0;orthogonalLoop=1;jettySize=auto;html=1;exitX=0.5;exitY=1;exitDx=0;exitDy=0;entryX=0.5;entryY=0;entryDx=0;entryDy=0;" edge="1" parent="1" source="h3mw5Vvp-WyGDYPCxj5l-1" target="h3mw5Vvp-WyGDYPCxj5l-4">
          <mxGeometry relative="1" as="geometry">
            <mxPoint x="760" y="100" as="targetPoint" />
          </mxGeometry>
        </mxCell>
        <mxCell id="h3mw5Vvp-WyGDYPCxj5l-1" value="" style="ellipse;whiteSpace=wrap;html=1;aspect=fixed;fillColor=#000000;" vertex="1" parent="1">
          <mxGeometry x="745" y="30" width="30" height="30" as="geometry" />
        </mxCell>
        <mxCell id="h3mw5Vvp-WyGDYPCxj5l-6" style="edgeStyle=orthogonalEdgeStyle;rounded=0;orthogonalLoop=1;jettySize=auto;html=1;exitX=0.5;exitY=1;exitDx=0;exitDy=0;entryX=0.5;entryY=0;entryDx=0;entryDy=0;" edge="1" parent="1" source="h3mw5Vvp-WyGDYPCxj5l-4" target="h3mw5Vvp-WyGDYPCxj5l-5">
          <mxGeometry relative="1" as="geometry">
            <Array as="points">
              <mxPoint x="760" y="200" />
              <mxPoint x="760" y="200" />
            </Array>
          </mxGeometry>
        </mxCell>
        <mxCell id="h3mw5Vvp-WyGDYPCxj5l-4" value="User at home page" style="rounded=1;whiteSpace=wrap;html=1;" vertex="1" parent="1">
          <mxGeometry x="700" y="100" width="120" height="60" as="geometry" />
        </mxCell>
        <mxCell id="h3mw5Vvp-WyGDYPCxj5l-8" style="edgeStyle=orthogonalEdgeStyle;rounded=0;orthogonalLoop=1;jettySize=auto;html=1;exitX=1;exitY=0.5;exitDx=0;exitDy=0;entryX=0;entryY=0.5;entryDx=0;entryDy=0;" edge="1" parent="1" source="h3mw5Vvp-WyGDYPCxj5l-5" target="h3mw5Vvp-WyGDYPCxj5l-10">
          <mxGeometry relative="1" as="geometry">
            <mxPoint x="940" y="235" as="targetPoint" />
          </mxGeometry>
        </mxCell>
        <mxCell id="h3mw5Vvp-WyGDYPCxj5l-9" value="[Registered User]" style="edgeLabel;html=1;align=center;verticalAlign=middle;resizable=0;points=[];" vertex="1" connectable="0" parent="h3mw5Vvp-WyGDYPCxj5l-8">
          <mxGeometry x="0.0027" y="-3" relative="1" as="geometry">
            <mxPoint y="-3" as="offset" />
          </mxGeometry>
        </mxCell>
        <mxCell id="h3mw5Vvp-WyGDYPCxj5l-52" style="edgeStyle=orthogonalEdgeStyle;rounded=0;orthogonalLoop=1;jettySize=auto;html=1;exitX=0;exitY=0.5;exitDx=0;exitDy=0;entryX=1;entryY=0.5;entryDx=0;entryDy=0;" edge="1" parent="1" source="h3mw5Vvp-WyGDYPCxj5l-5" target="h3mw5Vvp-WyGDYPCxj5l-53">
          <mxGeometry relative="1" as="geometry">
            <mxPoint x="630" y="235" as="targetPoint" />
          </mxGeometry>
        </mxCell>
        <mxCell id="h3mw5Vvp-WyGDYPCxj5l-54" value="[Guest User]" style="edgeLabel;html=1;align=center;verticalAlign=middle;resizable=0;points=[];" vertex="1" connectable="0" parent="h3mw5Vvp-WyGDYPCxj5l-52">
          <mxGeometry x="-0.1375" y="2" relative="1" as="geometry">
            <mxPoint as="offset" />
          </mxGeometry>
        </mxCell>
        <mxCell id="h3mw5Vvp-WyGDYPCxj5l-5" value="" style="rhombus;whiteSpace=wrap;html=1;" vertex="1" parent="1">
          <mxGeometry x="740" y="215" width="40" height="40" as="geometry" />
        </mxCell>
        <mxCell id="h3mw5Vvp-WyGDYPCxj5l-12" style="edgeStyle=orthogonalEdgeStyle;rounded=0;orthogonalLoop=1;jettySize=auto;html=1;exitX=1;exitY=0.5;exitDx=0;exitDy=0;entryX=0;entryY=0.5;entryDx=0;entryDy=0;" edge="1" parent="1" source="h3mw5Vvp-WyGDYPCxj5l-10" target="h3mw5Vvp-WyGDYPCxj5l-11">
          <mxGeometry relative="1" as="geometry" />
        </mxCell>
        <mxCell id="h3mw5Vvp-WyGDYPCxj5l-10" value="Login" style="rounded=1;whiteSpace=wrap;html=1;" vertex="1" parent="1">
          <mxGeometry x="940" y="210" width="90" height="50" as="geometry" />
        </mxCell>
        <mxCell id="h3mw5Vvp-WyGDYPCxj5l-13" style="edgeStyle=orthogonalEdgeStyle;rounded=0;orthogonalLoop=1;jettySize=auto;html=1;exitX=1;exitY=0.5;exitDx=0;exitDy=0;entryX=0;entryY=0.5;entryDx=0;entryDy=0;" edge="1" parent="1" source="h3mw5Vvp-WyGDYPCxj5l-11" target="h3mw5Vvp-WyGDYPCxj5l-24">
          <mxGeometry relative="1" as="geometry">
            <mxPoint x="1230" y="235" as="targetPoint" />
          </mxGeometry>
        </mxCell>
        <mxCell id="h3mw5Vvp-WyGDYPCxj5l-14" value="[System Admin]" style="edgeLabel;html=1;align=center;verticalAlign=middle;resizable=0;points=[];" vertex="1" connectable="0" parent="h3mw5Vvp-WyGDYPCxj5l-13">
          <mxGeometry x="0.2089" y="-2" relative="1" as="geometry">
            <mxPoint x="-11" y="-2" as="offset" />
          </mxGeometry>
        </mxCell>
        <mxCell id="h3mw5Vvp-WyGDYPCxj5l-15" style="edgeStyle=orthogonalEdgeStyle;rounded=0;orthogonalLoop=1;jettySize=auto;html=1;exitX=0.5;exitY=1;exitDx=0;exitDy=0;entryX=0;entryY=0.5;entryDx=0;entryDy=0;" edge="1" parent="1" source="h3mw5Vvp-WyGDYPCxj5l-11" target="h3mw5Vvp-WyGDYPCxj5l-17">
          <mxGeometry relative="1" as="geometry">
            <mxPoint x="1100.3333333333333" y="330" as="targetPoint" />
          </mxGeometry>
        </mxCell>
        <mxCell id="h3mw5Vvp-WyGDYPCxj5l-16" value="[Other User]" style="edgeLabel;html=1;align=center;verticalAlign=middle;resizable=0;points=[];" vertex="1" connectable="0" parent="h3mw5Vvp-WyGDYPCxj5l-15">
          <mxGeometry x="-0.2141" y="3" relative="1" as="geometry">
            <mxPoint as="offset" />
          </mxGeometry>
        </mxCell>
        <mxCell id="h3mw5Vvp-WyGDYPCxj5l-11" value="" style="rhombus;whiteSpace=wrap;html=1;" vertex="1" parent="1">
          <mxGeometry x="1080" y="215" width="40" height="40" as="geometry" />
        </mxCell>
        <mxCell id="h3mw5Vvp-WyGDYPCxj5l-17" value="" style="rhombus;whiteSpace=wrap;html=1;" vertex="1" parent="1">
          <mxGeometry x="1200" y="500" width="40" height="40" as="geometry" />
        </mxCell>
        <mxCell id="h3mw5Vvp-WyGDYPCxj5l-18" style="edgeStyle=orthogonalEdgeStyle;rounded=0;orthogonalLoop=1;jettySize=auto;html=1;exitX=1;exitY=0.5;exitDx=0;exitDy=0;entryX=0;entryY=0.5;entryDx=0;entryDy=0;" edge="1" parent="1" source="h3mw5Vvp-WyGDYPCxj5l-17" target="h3mw5Vvp-WyGDYPCxj5l-32">
          <mxGeometry relative="1" as="geometry">
            <mxPoint x="1400" y="520" as="targetPoint" />
            <mxPoint x="1260" y="349.44" as="sourcePoint" />
          </mxGeometry>
        </mxCell>
        <mxCell id="h3mw5Vvp-WyGDYPCxj5l-19" value="[Flight Attendant]" style="edgeLabel;html=1;align=center;verticalAlign=middle;resizable=0;points=[];" vertex="1" connectable="0" parent="h3mw5Vvp-WyGDYPCxj5l-18">
          <mxGeometry x="0.2089" y="-2" relative="1" as="geometry">
            <mxPoint x="-11" y="-2" as="offset" />
          </mxGeometry>
        </mxCell>
        <mxCell id="h3mw5Vvp-WyGDYPCxj5l-20" style="edgeStyle=orthogonalEdgeStyle;rounded=0;orthogonalLoop=1;jettySize=auto;html=1;exitX=0.5;exitY=1;exitDx=0;exitDy=0;entryX=0.5;entryY=0;entryDx=0;entryDy=0;" edge="1" parent="1" source="h3mw5Vvp-WyGDYPCxj5l-17" target="h3mw5Vvp-WyGDYPCxj5l-34">
          <mxGeometry relative="1" as="geometry">
            <mxPoint x="1220" y="790" as="targetPoint" />
            <mxPoint x="1230" y="265" as="sourcePoint" />
          </mxGeometry>
        </mxCell>
        <mxCell id="h3mw5Vvp-WyGDYPCxj5l-21" value="[Other User]" style="edgeLabel;html=1;align=center;verticalAlign=middle;resizable=0;points=[];" vertex="1" connectable="0" parent="h3mw5Vvp-WyGDYPCxj5l-20">
          <mxGeometry x="-0.2141" y="3" relative="1" as="geometry">
            <mxPoint as="offset" />
          </mxGeometry>
        </mxCell>
        <mxCell id="h3mw5Vvp-WyGDYPCxj5l-118" style="edgeStyle=orthogonalEdgeStyle;rounded=0;orthogonalLoop=1;jettySize=auto;html=1;exitX=1;exitY=0.5;exitDx=0;exitDy=0;entryX=1;entryY=1;entryDx=0;entryDy=0;" edge="1" parent="1" source="h3mw5Vvp-WyGDYPCxj5l-22" target="h3mw5Vvp-WyGDYPCxj5l-107">
          <mxGeometry relative="1" as="geometry">
            <mxPoint x="1930" y="1760" as="targetPoint" />
            <Array as="points">
              <mxPoint x="1920" y="100" />
              <mxPoint x="1920" y="1721" />
            </Array>
          </mxGeometry>
        </mxCell>
        <mxCell id="h3mw5Vvp-WyGDYPCxj5l-22" value="Manage Flights &amp;amp; Crew" style="rounded=1;whiteSpace=wrap;html=1;" vertex="1" parent="1">
          <mxGeometry x="1480" y="70" width="120" height="60" as="geometry" />
        </mxCell>
        <mxCell id="h3mw5Vvp-WyGDYPCxj5l-115" style="edgeStyle=orthogonalEdgeStyle;rounded=0;orthogonalLoop=1;jettySize=auto;html=1;exitX=1;exitY=0.25;exitDx=0;exitDy=0;entryX=1;entryY=0;entryDx=0;entryDy=0;" edge="1" parent="1" source="h3mw5Vvp-WyGDYPCxj5l-23" target="h3mw5Vvp-WyGDYPCxj5l-107">
          <mxGeometry relative="1" as="geometry">
            <mxPoint x="1870" y="1650" as="targetPoint" />
          </mxGeometry>
        </mxCell>
        <mxCell id="h3mw5Vvp-WyGDYPCxj5l-23" value="Browse List of Passengers" style="rounded=1;whiteSpace=wrap;html=1;" vertex="1" parent="1">
          <mxGeometry x="1600" y="492.5" width="120" height="55" as="geometry" />
        </mxCell>
        <mxCell id="h3mw5Vvp-WyGDYPCxj5l-25" style="edgeStyle=orthogonalEdgeStyle;rounded=0;orthogonalLoop=1;jettySize=auto;html=1;exitX=0.5;exitY=0;exitDx=0;exitDy=0;entryX=0;entryY=0.5;entryDx=0;entryDy=0;" edge="1" parent="1" source="h3mw5Vvp-WyGDYPCxj5l-24" target="h3mw5Vvp-WyGDYPCxj5l-22">
          <mxGeometry relative="1" as="geometry" />
        </mxCell>
        <mxCell id="h3mw5Vvp-WyGDYPCxj5l-27" style="edgeStyle=orthogonalEdgeStyle;rounded=0;orthogonalLoop=1;jettySize=auto;html=1;exitX=1;exitY=0.5;exitDx=0;exitDy=0;entryX=0;entryY=0.5;entryDx=0;entryDy=0;" edge="1" parent="1" source="h3mw5Vvp-WyGDYPCxj5l-24" target="h3mw5Vvp-WyGDYPCxj5l-26">
          <mxGeometry relative="1" as="geometry" />
        </mxCell>
        <mxCell id="h3mw5Vvp-WyGDYPCxj5l-29" style="edgeStyle=orthogonalEdgeStyle;rounded=0;orthogonalLoop=1;jettySize=auto;html=1;exitX=0.5;exitY=1;exitDx=0;exitDy=0;entryX=0;entryY=0.5;entryDx=0;entryDy=0;" edge="1" parent="1" source="h3mw5Vvp-WyGDYPCxj5l-24" target="h3mw5Vvp-WyGDYPCxj5l-28">
          <mxGeometry relative="1" as="geometry" />
        </mxCell>
        <mxCell id="h3mw5Vvp-WyGDYPCxj5l-24" value="" style="rhombus;whiteSpace=wrap;html=1;" vertex="1" parent="1">
          <mxGeometry x="1280" y="215" width="40" height="40" as="geometry" />
        </mxCell>
        <mxCell id="h3mw5Vvp-WyGDYPCxj5l-117" style="edgeStyle=orthogonalEdgeStyle;rounded=0;orthogonalLoop=1;jettySize=auto;html=1;exitX=1;exitY=0.5;exitDx=0;exitDy=0;" edge="1" parent="1" source="h3mw5Vvp-WyGDYPCxj5l-26">
          <mxGeometry relative="1" as="geometry">
            <mxPoint x="1860" y="1710" as="targetPoint" />
            <Array as="points">
              <mxPoint x="1900" y="235" />
              <mxPoint x="1900" y="1710" />
              <mxPoint x="1860" y="1710" />
            </Array>
          </mxGeometry>
        </mxCell>
        <mxCell id="h3mw5Vvp-WyGDYPCxj5l-26" value="Manage Aircrafts" style="rounded=1;whiteSpace=wrap;html=1;" vertex="1" parent="1">
          <mxGeometry x="1480" y="210" width="100" height="50" as="geometry" />
        </mxCell>
        <mxCell id="h3mw5Vvp-WyGDYPCxj5l-116" style="edgeStyle=orthogonalEdgeStyle;rounded=0;orthogonalLoop=1;jettySize=auto;html=1;exitX=1;exitY=0.5;exitDx=0;exitDy=0;entryX=0.98;entryY=0.342;entryDx=0;entryDy=0;entryPerimeter=0;" edge="1" parent="1" source="h3mw5Vvp-WyGDYPCxj5l-28" target="h3mw5Vvp-WyGDYPCxj5l-107">
          <mxGeometry relative="1" as="geometry">
            <mxPoint x="1870" y="1700" as="targetPoint" />
          </mxGeometry>
        </mxCell>
        <mxCell id="h3mw5Vvp-WyGDYPCxj5l-28" value="Print User List" style="rounded=1;whiteSpace=wrap;html=1;" vertex="1" parent="1">
          <mxGeometry x="1480" y="360" width="90" height="50" as="geometry" />
        </mxCell>
        <mxCell id="h3mw5Vvp-WyGDYPCxj5l-33" style="edgeStyle=orthogonalEdgeStyle;rounded=0;orthogonalLoop=1;jettySize=auto;html=1;exitX=1;exitY=0.5;exitDx=0;exitDy=0;entryX=0;entryY=0.5;entryDx=0;entryDy=0;" edge="1" parent="1" source="h3mw5Vvp-WyGDYPCxj5l-32" target="h3mw5Vvp-WyGDYPCxj5l-23">
          <mxGeometry relative="1" as="geometry" />
        </mxCell>
        <mxCell id="h3mw5Vvp-WyGDYPCxj5l-32" value="" style="rhombus;whiteSpace=wrap;html=1;" vertex="1" parent="1">
          <mxGeometry x="1450" y="500" width="40" height="40" as="geometry" />
        </mxCell>
        <mxCell id="h3mw5Vvp-WyGDYPCxj5l-37" style="edgeStyle=orthogonalEdgeStyle;rounded=0;orthogonalLoop=1;jettySize=auto;html=1;exitX=0.5;exitY=1;exitDx=0;exitDy=0;entryX=0;entryY=0.5;entryDx=0;entryDy=0;" edge="1" parent="1" source="h3mw5Vvp-WyGDYPCxj5l-34" target="h3mw5Vvp-WyGDYPCxj5l-36">
          <mxGeometry relative="1" as="geometry" />
        </mxCell>
        <mxCell id="h3mw5Vvp-WyGDYPCxj5l-38" value="[Airline Agent]" style="edgeLabel;html=1;align=center;verticalAlign=middle;resizable=0;points=[];" vertex="1" connectable="0" parent="h3mw5Vvp-WyGDYPCxj5l-37">
          <mxGeometry x="0.1058" y="2" relative="1" as="geometry">
            <mxPoint as="offset" />
          </mxGeometry>
        </mxCell>
        <mxCell id="h3mw5Vvp-WyGDYPCxj5l-40" style="edgeStyle=orthogonalEdgeStyle;rounded=0;orthogonalLoop=1;jettySize=auto;html=1;exitX=0;exitY=0.5;exitDx=0;exitDy=0;entryX=0.5;entryY=0;entryDx=0;entryDy=0;" edge="1" parent="1" source="h3mw5Vvp-WyGDYPCxj5l-34" target="h3mw5Vvp-WyGDYPCxj5l-42">
          <mxGeometry relative="1" as="geometry">
            <mxPoint x="1220" y="1000" as="targetPoint" />
          </mxGeometry>
        </mxCell>
        <mxCell id="h3mw5Vvp-WyGDYPCxj5l-41" value="[Customer]" style="edgeLabel;html=1;align=center;verticalAlign=middle;resizable=0;points=[];" vertex="1" connectable="0" parent="h3mw5Vvp-WyGDYPCxj5l-40">
          <mxGeometry x="-0.102" relative="1" as="geometry">
            <mxPoint as="offset" />
          </mxGeometry>
        </mxCell>
        <mxCell id="h3mw5Vvp-WyGDYPCxj5l-34" value="" style="rhombus;whiteSpace=wrap;html=1;" vertex="1" parent="1">
          <mxGeometry x="1200" y="670" width="40" height="40" as="geometry" />
        </mxCell>
        <mxCell id="h3mw5Vvp-WyGDYPCxj5l-39" style="edgeStyle=orthogonalEdgeStyle;rounded=0;orthogonalLoop=1;jettySize=auto;html=1;exitX=0.5;exitY=0;exitDx=0;exitDy=0;entryX=0.5;entryY=1;entryDx=0;entryDy=0;" edge="1" parent="1" source="h3mw5Vvp-WyGDYPCxj5l-36" target="h3mw5Vvp-WyGDYPCxj5l-32">
          <mxGeometry relative="1" as="geometry" />
        </mxCell>
        <mxCell id="h3mw5Vvp-WyGDYPCxj5l-74" style="edgeStyle=orthogonalEdgeStyle;rounded=0;orthogonalLoop=1;jettySize=auto;html=1;exitX=0.5;exitY=1;exitDx=0;exitDy=0;entryX=0.75;entryY=0;entryDx=0;entryDy=0;" edge="1" parent="1" source="h3mw5Vvp-WyGDYPCxj5l-36" target="h3mw5Vvp-WyGDYPCxj5l-71">
          <mxGeometry relative="1" as="geometry">
            <Array as="points">
              <mxPoint x="1470" y="970" />
              <mxPoint x="423" y="970" />
            </Array>
          </mxGeometry>
        </mxCell>
        <mxCell id="h3mw5Vvp-WyGDYPCxj5l-36" value="" style="rhombus;whiteSpace=wrap;html=1;" vertex="1" parent="1">
          <mxGeometry x="1450" y="790" width="40" height="40" as="geometry" />
        </mxCell>
        <mxCell id="h3mw5Vvp-WyGDYPCxj5l-65" style="edgeStyle=orthogonalEdgeStyle;rounded=0;orthogonalLoop=1;jettySize=auto;html=1;exitX=0;exitY=1;exitDx=0;exitDy=0;entryX=0.5;entryY=0;entryDx=0;entryDy=0;" edge="1" parent="1" source="h3mw5Vvp-WyGDYPCxj5l-42" target="h3mw5Vvp-WyGDYPCxj5l-50">
          <mxGeometry relative="1" as="geometry" />
        </mxCell>
        <mxCell id="h3mw5Vvp-WyGDYPCxj5l-66" style="edgeStyle=orthogonalEdgeStyle;rounded=0;orthogonalLoop=1;jettySize=auto;html=1;exitX=0.5;exitY=1;exitDx=0;exitDy=0;" edge="1" parent="1" source="h3mw5Vvp-WyGDYPCxj5l-42" target="h3mw5Vvp-WyGDYPCxj5l-46">
          <mxGeometry relative="1" as="geometry" />
        </mxCell>
        <mxCell id="h3mw5Vvp-WyGDYPCxj5l-67" style="edgeStyle=orthogonalEdgeStyle;rounded=0;orthogonalLoop=1;jettySize=auto;html=1;exitX=1;exitY=1;exitDx=0;exitDy=0;entryX=0.5;entryY=0;entryDx=0;entryDy=0;" edge="1" parent="1" source="h3mw5Vvp-WyGDYPCxj5l-42" target="h3mw5Vvp-WyGDYPCxj5l-43">
          <mxGeometry relative="1" as="geometry">
            <mxPoint x="1060" y="840" as="targetPoint" />
          </mxGeometry>
        </mxCell>
        <mxCell id="h3mw5Vvp-WyGDYPCxj5l-68" style="edgeStyle=orthogonalEdgeStyle;rounded=0;orthogonalLoop=1;jettySize=auto;html=1;exitX=0;exitY=0.5;exitDx=0;exitDy=0;entryX=0.5;entryY=0;entryDx=0;entryDy=0;" edge="1" parent="1" source="h3mw5Vvp-WyGDYPCxj5l-42" target="h3mw5Vvp-WyGDYPCxj5l-58">
          <mxGeometry relative="1" as="geometry" />
        </mxCell>
        <mxCell id="h3mw5Vvp-WyGDYPCxj5l-73" style="edgeStyle=orthogonalEdgeStyle;rounded=0;orthogonalLoop=1;jettySize=auto;html=1;exitX=0;exitY=0;exitDx=0;exitDy=0;entryX=0.5;entryY=0;entryDx=0;entryDy=0;" edge="1" parent="1" source="h3mw5Vvp-WyGDYPCxj5l-42" target="h3mw5Vvp-WyGDYPCxj5l-71">
          <mxGeometry relative="1" as="geometry" />
        </mxCell>
        <mxCell id="h3mw5Vvp-WyGDYPCxj5l-42" value="" style="rhombus;whiteSpace=wrap;html=1;" vertex="1" parent="1">
          <mxGeometry x="900" y="750" width="40" height="40" as="geometry" />
        </mxCell>
        <mxCell id="h3mw5Vvp-WyGDYPCxj5l-114" style="edgeStyle=orthogonalEdgeStyle;rounded=0;orthogonalLoop=1;jettySize=auto;html=1;exitX=0.5;exitY=1;exitDx=0;exitDy=0;entryX=0.5;entryY=0;entryDx=0;entryDy=0;" edge="1" parent="1" source="h3mw5Vvp-WyGDYPCxj5l-43" target="h3mw5Vvp-WyGDYPCxj5l-107">
          <mxGeometry relative="1" as="geometry">
            <Array as="points">
              <mxPoint x="1050" y="1200" />
              <mxPoint x="1835" y="1200" />
            </Array>
          </mxGeometry>
        </mxCell>
        <mxCell id="h3mw5Vvp-WyGDYPCxj5l-43" value="Apply for Company Credit Card" style="rounded=1;whiteSpace=wrap;html=1;" vertex="1" parent="1">
          <mxGeometry x="990" y="850" width="120" height="55" as="geometry" />
        </mxCell>
        <mxCell id="h3mw5Vvp-WyGDYPCxj5l-113" style="edgeStyle=orthogonalEdgeStyle;rounded=0;orthogonalLoop=1;jettySize=auto;html=1;exitX=0.5;exitY=1;exitDx=0;exitDy=0;entryX=0;entryY=0.387;entryDx=0;entryDy=0;entryPerimeter=0;" edge="1" parent="1" source="h3mw5Vvp-WyGDYPCxj5l-46" target="h3mw5Vvp-WyGDYPCxj5l-107">
          <mxGeometry relative="1" as="geometry">
            <mxPoint x="1780" y="1700" as="targetPoint" />
            <Array as="points">
              <mxPoint x="920" y="1260" />
              <mxPoint x="1780" y="1260" />
              <mxPoint x="1780" y="1700" />
            </Array>
          </mxGeometry>
        </mxCell>
        <mxCell id="h3mw5Vvp-WyGDYPCxj5l-46" value="View/Receive Discounts &amp;amp; Promotions" style="rounded=1;whiteSpace=wrap;html=1;" vertex="1" parent="1">
          <mxGeometry x="867.5" y="847.5" width="105" height="60" as="geometry" />
        </mxCell>
        <mxCell id="h3mw5Vvp-WyGDYPCxj5l-112" style="edgeStyle=orthogonalEdgeStyle;rounded=0;orthogonalLoop=1;jettySize=auto;html=1;exitX=0.5;exitY=1;exitDx=0;exitDy=0;entryX=0;entryY=0;entryDx=0;entryDy=0;" edge="1" parent="1" source="h3mw5Vvp-WyGDYPCxj5l-50" target="h3mw5Vvp-WyGDYPCxj5l-107">
          <mxGeometry relative="1" as="geometry">
            <mxPoint x="1830" y="1590" as="targetPoint" />
            <Array as="points">
              <mxPoint x="780" y="950" />
              <mxPoint x="840" y="950" />
              <mxPoint x="840" y="1220" />
              <mxPoint x="1819" y="1220" />
            </Array>
          </mxGeometry>
        </mxCell>
        <mxCell id="h3mw5Vvp-WyGDYPCxj5l-50" value="View payment history &amp;amp; booked tickets" style="rounded=1;whiteSpace=wrap;html=1;" vertex="1" parent="1">
          <mxGeometry x="720" y="850" width="120" height="55" as="geometry" />
        </mxCell>
        <mxCell id="h3mw5Vvp-WyGDYPCxj5l-56" style="edgeStyle=orthogonalEdgeStyle;rounded=0;orthogonalLoop=1;jettySize=auto;html=1;exitX=0.5;exitY=1;exitDx=0;exitDy=0;entryX=0;entryY=0.5;entryDx=0;entryDy=0;" edge="1" parent="1" source="h3mw5Vvp-WyGDYPCxj5l-53" target="h3mw5Vvp-WyGDYPCxj5l-55">
          <mxGeometry relative="1" as="geometry" />
        </mxCell>
        <mxCell id="h3mw5Vvp-WyGDYPCxj5l-70" style="edgeStyle=orthogonalEdgeStyle;rounded=0;orthogonalLoop=1;jettySize=auto;html=1;exitX=0;exitY=0.5;exitDx=0;exitDy=0;entryX=0.25;entryY=0;entryDx=0;entryDy=0;" edge="1" parent="1" source="h3mw5Vvp-WyGDYPCxj5l-53" target="h3mw5Vvp-WyGDYPCxj5l-58">
          <mxGeometry relative="1" as="geometry" />
        </mxCell>
        <mxCell id="h3mw5Vvp-WyGDYPCxj5l-72" style="edgeStyle=orthogonalEdgeStyle;rounded=0;orthogonalLoop=1;jettySize=auto;html=1;exitX=0;exitY=0.5;exitDx=0;exitDy=0;entryX=0.25;entryY=0;entryDx=0;entryDy=0;" edge="1" parent="1" source="h3mw5Vvp-WyGDYPCxj5l-53" target="h3mw5Vvp-WyGDYPCxj5l-71">
          <mxGeometry relative="1" as="geometry" />
        </mxCell>
        <mxCell id="h3mw5Vvp-WyGDYPCxj5l-53" value="" style="rhombus;whiteSpace=wrap;html=1;" vertex="1" parent="1">
          <mxGeometry x="540" y="215" width="40" height="40" as="geometry" />
        </mxCell>
        <mxCell id="h3mw5Vvp-WyGDYPCxj5l-57" style="edgeStyle=orthogonalEdgeStyle;rounded=0;orthogonalLoop=1;jettySize=auto;html=1;exitX=0.5;exitY=0;exitDx=0;exitDy=0;entryX=0.5;entryY=1;entryDx=0;entryDy=0;" edge="1" parent="1" source="h3mw5Vvp-WyGDYPCxj5l-55" target="h3mw5Vvp-WyGDYPCxj5l-5">
          <mxGeometry relative="1" as="geometry" />
        </mxCell>
        <mxCell id="h3mw5Vvp-WyGDYPCxj5l-55" value="Register for Membership" style="rounded=1;whiteSpace=wrap;html=1;" vertex="1" parent="1">
          <mxGeometry x="715" y="360" width="90" height="50" as="geometry" />
        </mxCell>
        <mxCell id="h3mw5Vvp-WyGDYPCxj5l-76" style="edgeStyle=orthogonalEdgeStyle;rounded=0;orthogonalLoop=1;jettySize=auto;html=1;exitX=0.5;exitY=1;exitDx=0;exitDy=0;entryX=0.5;entryY=0;entryDx=0;entryDy=0;" edge="1" parent="1" source="h3mw5Vvp-WyGDYPCxj5l-58" target="h3mw5Vvp-WyGDYPCxj5l-82">
          <mxGeometry relative="1" as="geometry" />
        </mxCell>
        <mxCell id="h3mw5Vvp-WyGDYPCxj5l-58" value="Browse Flights" style="rounded=1;whiteSpace=wrap;html=1;" vertex="1" parent="1">
          <mxGeometry x="530" y="1160" width="230" height="40" as="geometry" />
        </mxCell>
        <mxCell id="h3mw5Vvp-WyGDYPCxj5l-69" style="edgeStyle=orthogonalEdgeStyle;rounded=0;orthogonalLoop=1;jettySize=auto;html=1;exitX=0.5;exitY=1;exitDx=0;exitDy=0;entryX=0.75;entryY=0;entryDx=0;entryDy=0;" edge="1" parent="1" source="h3mw5Vvp-WyGDYPCxj5l-36" target="h3mw5Vvp-WyGDYPCxj5l-58">
          <mxGeometry relative="1" as="geometry" />
        </mxCell>
        <mxCell id="h3mw5Vvp-WyGDYPCxj5l-98" style="edgeStyle=orthogonalEdgeStyle;rounded=0;orthogonalLoop=1;jettySize=auto;html=1;exitX=0.5;exitY=1;exitDx=0;exitDy=0;entryX=0.5;entryY=0;entryDx=0;entryDy=0;" edge="1" parent="1" source="h3mw5Vvp-WyGDYPCxj5l-71" target="h3mw5Vvp-WyGDYPCxj5l-99">
          <mxGeometry relative="1" as="geometry">
            <mxPoint x="365" y="1250" as="targetPoint" />
          </mxGeometry>
        </mxCell>
        <mxCell id="h3mw5Vvp-WyGDYPCxj5l-71" value="Cancel Flight" style="rounded=1;whiteSpace=wrap;html=1;" vertex="1" parent="1">
          <mxGeometry x="250" y="1160" width="230" height="40" as="geometry" />
        </mxCell>
        <mxCell id="h3mw5Vvp-WyGDYPCxj5l-87" style="edgeStyle=orthogonalEdgeStyle;rounded=0;orthogonalLoop=1;jettySize=auto;html=1;exitX=0.5;exitY=1;exitDx=0;exitDy=0;entryX=0;entryY=0;entryDx=0;entryDy=0;" edge="1" parent="1" source="h3mw5Vvp-WyGDYPCxj5l-75" target="h3mw5Vvp-WyGDYPCxj5l-86">
          <mxGeometry relative="1" as="geometry" />
        </mxCell>
        <mxCell id="h3mw5Vvp-WyGDYPCxj5l-75" value="Select Date" style="rounded=1;whiteSpace=wrap;html=1;" vertex="1" parent="1">
          <mxGeometry x="585" y="1340" width="105" height="40" as="geometry" />
        </mxCell>
        <mxCell id="h3mw5Vvp-WyGDYPCxj5l-88" style="edgeStyle=orthogonalEdgeStyle;rounded=0;orthogonalLoop=1;jettySize=auto;html=1;exitX=0.5;exitY=1;exitDx=0;exitDy=0;entryX=0.5;entryY=0;entryDx=0;entryDy=0;" edge="1" parent="1" source="h3mw5Vvp-WyGDYPCxj5l-77" target="h3mw5Vvp-WyGDYPCxj5l-86">
          <mxGeometry relative="1" as="geometry" />
        </mxCell>
        <mxCell id="h3mw5Vvp-WyGDYPCxj5l-77" value="Select Origin" style="rounded=1;whiteSpace=wrap;html=1;" vertex="1" parent="1">
          <mxGeometry x="747.5" y="1340" width="115" height="40" as="geometry" />
        </mxCell>
        <mxCell id="h3mw5Vvp-WyGDYPCxj5l-89" style="edgeStyle=orthogonalEdgeStyle;rounded=0;orthogonalLoop=1;jettySize=auto;html=1;exitX=0.5;exitY=1;exitDx=0;exitDy=0;entryX=1;entryY=0;entryDx=0;entryDy=0;" edge="1" parent="1" source="h3mw5Vvp-WyGDYPCxj5l-78" target="h3mw5Vvp-WyGDYPCxj5l-86">
          <mxGeometry relative="1" as="geometry" />
        </mxCell>
        <mxCell id="h3mw5Vvp-WyGDYPCxj5l-78" value="Select Destination" style="rounded=1;whiteSpace=wrap;html=1;" vertex="1" parent="1">
          <mxGeometry x="915" y="1340" width="115" height="40" as="geometry" />
        </mxCell>
        <mxCell id="h3mw5Vvp-WyGDYPCxj5l-92" style="edgeStyle=orthogonalEdgeStyle;rounded=0;orthogonalLoop=1;jettySize=auto;html=1;exitX=1;exitY=0.5;exitDx=0;exitDy=0;entryX=0;entryY=0.5;entryDx=0;entryDy=0;" edge="1" parent="1" source="h3mw5Vvp-WyGDYPCxj5l-81" target="h3mw5Vvp-WyGDYPCxj5l-91">
          <mxGeometry relative="1" as="geometry" />
        </mxCell>
        <mxCell id="h3mw5Vvp-WyGDYPCxj5l-81" value="Select Flight" style="rounded=1;whiteSpace=wrap;html=1;" vertex="1" parent="1">
          <mxGeometry x="747.5" y="1520" width="115" height="40" as="geometry" />
        </mxCell>
        <mxCell id="h3mw5Vvp-WyGDYPCxj5l-83" style="edgeStyle=orthogonalEdgeStyle;rounded=0;orthogonalLoop=1;jettySize=auto;html=1;exitX=0.5;exitY=1;exitDx=0;exitDy=0;entryX=0.5;entryY=0;entryDx=0;entryDy=0;" edge="1" parent="1" source="h3mw5Vvp-WyGDYPCxj5l-82" target="h3mw5Vvp-WyGDYPCxj5l-75">
          <mxGeometry relative="1" as="geometry" />
        </mxCell>
        <mxCell id="h3mw5Vvp-WyGDYPCxj5l-84" style="edgeStyle=orthogonalEdgeStyle;rounded=0;orthogonalLoop=1;jettySize=auto;html=1;exitX=0.5;exitY=1;exitDx=0;exitDy=0;entryX=0.5;entryY=0;entryDx=0;entryDy=0;" edge="1" parent="1" source="h3mw5Vvp-WyGDYPCxj5l-82" target="h3mw5Vvp-WyGDYPCxj5l-77">
          <mxGeometry relative="1" as="geometry" />
        </mxCell>
        <mxCell id="h3mw5Vvp-WyGDYPCxj5l-85" style="edgeStyle=orthogonalEdgeStyle;rounded=0;orthogonalLoop=1;jettySize=auto;html=1;exitX=0.5;exitY=1;exitDx=0;exitDy=0;entryX=0.5;entryY=0;entryDx=0;entryDy=0;" edge="1" parent="1" source="h3mw5Vvp-WyGDYPCxj5l-82" target="h3mw5Vvp-WyGDYPCxj5l-78">
          <mxGeometry relative="1" as="geometry" />
        </mxCell>
        <mxCell id="h3mw5Vvp-WyGDYPCxj5l-82" value="" style="rounded=1;whiteSpace=wrap;html=1;strokeColor=#000000;fillColor=#000000;" vertex="1" parent="1">
          <mxGeometry x="732.5" y="1260" width="145" height="15" as="geometry" />
        </mxCell>
        <mxCell id="h3mw5Vvp-WyGDYPCxj5l-90" style="edgeStyle=orthogonalEdgeStyle;rounded=0;orthogonalLoop=1;jettySize=auto;html=1;exitX=0.5;exitY=1;exitDx=0;exitDy=0;entryX=0.5;entryY=0;entryDx=0;entryDy=0;" edge="1" parent="1" source="h3mw5Vvp-WyGDYPCxj5l-86" target="h3mw5Vvp-WyGDYPCxj5l-81">
          <mxGeometry relative="1" as="geometry" />
        </mxCell>
        <mxCell id="h3mw5Vvp-WyGDYPCxj5l-86" value="" style="rounded=1;whiteSpace=wrap;html=1;strokeColor=#000000;fillColor=#000000;" vertex="1" parent="1">
          <mxGeometry x="732.5" y="1440" width="145" height="15" as="geometry" />
        </mxCell>
        <mxCell id="h3mw5Vvp-WyGDYPCxj5l-97" style="edgeStyle=orthogonalEdgeStyle;rounded=0;orthogonalLoop=1;jettySize=auto;html=1;exitX=1;exitY=0.5;exitDx=0;exitDy=0;entryX=0;entryY=0.5;entryDx=0;entryDy=0;" edge="1" parent="1" source="h3mw5Vvp-WyGDYPCxj5l-91" target="h3mw5Vvp-WyGDYPCxj5l-95">
          <mxGeometry relative="1" as="geometry" />
        </mxCell>
        <mxCell id="h3mw5Vvp-WyGDYPCxj5l-91" value="Select Seat Location, Seat Type, &amp;amp; Cancellation Insurance" style="rounded=1;whiteSpace=wrap;html=1;" vertex="1" parent="1">
          <mxGeometry x="972.5" y="1510" width="205" height="60" as="geometry" />
        </mxCell>
        <mxCell id="h3mw5Vvp-WyGDYPCxj5l-111" style="edgeStyle=orthogonalEdgeStyle;rounded=0;orthogonalLoop=1;jettySize=auto;html=1;exitX=0.5;exitY=1;exitDx=0;exitDy=0;entryX=0;entryY=1;entryDx=0;entryDy=0;" edge="1" parent="1" source="h3mw5Vvp-WyGDYPCxj5l-94" target="h3mw5Vvp-WyGDYPCxj5l-107">
          <mxGeometry relative="1" as="geometry">
            <mxPoint x="1820" y="1730" as="targetPoint" />
            <Array as="points">
              <mxPoint x="1530" y="1750" />
              <mxPoint x="1800" y="1750" />
              <mxPoint x="1800" y="1721" />
            </Array>
          </mxGeometry>
        </mxCell>
        <mxCell id="h3mw5Vvp-WyGDYPCxj5l-94" value="Make Payment" style="rounded=1;whiteSpace=wrap;html=1;" vertex="1" parent="1">
          <mxGeometry x="1472.5" y="1415" width="115" height="40" as="geometry" />
        </mxCell>
        <mxCell id="h3mw5Vvp-WyGDYPCxj5l-110" style="edgeStyle=orthogonalEdgeStyle;rounded=0;orthogonalLoop=1;jettySize=auto;html=1;exitX=1;exitY=0.5;exitDx=0;exitDy=0;entryX=0;entryY=0.5;entryDx=0;entryDy=0;" edge="1" parent="1" source="h3mw5Vvp-WyGDYPCxj5l-95" target="h3mw5Vvp-WyGDYPCxj5l-94">
          <mxGeometry relative="1" as="geometry" />
        </mxCell>
        <mxCell id="h3mw5Vvp-WyGDYPCxj5l-95" value="" style="rhombus;whiteSpace=wrap;html=1;" vertex="1" parent="1">
          <mxGeometry x="1320" y="1415" width="40" height="40" as="geometry" />
        </mxCell>
        <mxCell id="h3mw5Vvp-WyGDYPCxj5l-101" style="edgeStyle=orthogonalEdgeStyle;rounded=0;orthogonalLoop=1;jettySize=auto;html=1;exitX=0.5;exitY=1;exitDx=0;exitDy=0;entryX=0.5;entryY=0;entryDx=0;entryDy=0;" edge="1" parent="1" source="h3mw5Vvp-WyGDYPCxj5l-99" target="h3mw5Vvp-WyGDYPCxj5l-100">
          <mxGeometry relative="1" as="geometry" />
        </mxCell>
        <mxCell id="h3mw5Vvp-WyGDYPCxj5l-99" value="Enter booking code and last name on ticket" style="rounded=1;whiteSpace=wrap;html=1;" vertex="1" parent="1">
          <mxGeometry x="286.25" y="1260" width="157.5" height="60" as="geometry" />
        </mxCell>
        <mxCell id="h3mw5Vvp-WyGDYPCxj5l-102" style="edgeStyle=orthogonalEdgeStyle;rounded=0;orthogonalLoop=1;jettySize=auto;html=1;exitX=1;exitY=1;exitDx=0;exitDy=0;entryX=0.5;entryY=1;entryDx=0;entryDy=0;" edge="1" parent="1" source="h3mw5Vvp-WyGDYPCxj5l-100" target="h3mw5Vvp-WyGDYPCxj5l-95">
          <mxGeometry relative="1" as="geometry">
            <mxPoint x="530" y="1660" as="targetPoint" />
            <Array as="points">
              <mxPoint x="480" y="1400" />
              <mxPoint x="480" y="1620" />
              <mxPoint x="1340" y="1620" />
            </Array>
          </mxGeometry>
        </mxCell>
        <mxCell id="h3mw5Vvp-WyGDYPCxj5l-104" value="[No Cancellation Insurance]" style="edgeLabel;html=1;align=center;verticalAlign=middle;resizable=0;points=[];" vertex="1" connectable="0" parent="h3mw5Vvp-WyGDYPCxj5l-102">
          <mxGeometry x="-0.8898" y="1" relative="1" as="geometry">
            <mxPoint x="25" y="121" as="offset" />
          </mxGeometry>
        </mxCell>
        <mxCell id="h3mw5Vvp-WyGDYPCxj5l-105" style="edgeStyle=orthogonalEdgeStyle;rounded=0;orthogonalLoop=1;jettySize=auto;html=1;exitX=0;exitY=1;exitDx=0;exitDy=0;entryX=0.5;entryY=1;entryDx=0;entryDy=0;" edge="1" parent="1" source="h3mw5Vvp-WyGDYPCxj5l-100" target="h3mw5Vvp-WyGDYPCxj5l-107">
          <mxGeometry relative="1" as="geometry">
            <mxPoint x="1640" y="1810" as="targetPoint" />
            <Array as="points">
              <mxPoint x="160" y="1400" />
              <mxPoint x="160" y="1810" />
              <mxPoint x="1835" y="1810" />
            </Array>
          </mxGeometry>
        </mxCell>
        <mxCell id="h3mw5Vvp-WyGDYPCxj5l-109" value="[Has Cancellation Insurance]" style="edgeLabel;html=1;align=center;verticalAlign=middle;resizable=0;points=[];" vertex="1" connectable="0" parent="h3mw5Vvp-WyGDYPCxj5l-105">
          <mxGeometry x="-0.6435" relative="1" as="geometry">
            <mxPoint y="-29" as="offset" />
          </mxGeometry>
        </mxCell>
        <mxCell id="h3mw5Vvp-WyGDYPCxj5l-100" value="" style="rhombus;whiteSpace=wrap;html=1;" vertex="1" parent="1">
          <mxGeometry x="345" y="1370" width="40" height="40" as="geometry" />
        </mxCell>
        <mxCell id="h3mw5Vvp-WyGDYPCxj5l-108" value="" style="group" vertex="1" connectable="0" parent="1">
          <mxGeometry x="1812.5" y="1682.5" width="45" height="45" as="geometry" />
        </mxCell>
        <mxCell id="h3mw5Vvp-WyGDYPCxj5l-107" value="" style="ellipse;whiteSpace=wrap;html=1;aspect=fixed;" vertex="1" parent="h3mw5Vvp-WyGDYPCxj5l-108">
          <mxGeometry width="45" height="45" as="geometry" />
        </mxCell>
        <mxCell id="h3mw5Vvp-WyGDYPCxj5l-106" value="" style="ellipse;whiteSpace=wrap;html=1;aspect=fixed;fillColor=#000000;" vertex="1" parent="h3mw5Vvp-WyGDYPCxj5l-108">
          <mxGeometry x="7.5" y="7.5" width="30" height="30" as="geometry" />
        </mxCell>
      </root>
    </mxGraphModel>
  </diagram>
</mxfile>
